<?xml version="1.0" standalone="no"?>
<!DOCTYPE svg PUBLIC "-//W3C//DTD SVG 20010904//EN"
 "http://www.w3.org/TR/2001/REC-SVG-20010904/DTD/svg10.dtd">
<svg version="1.0" xmlns="http://www.w3.org/2000/svg"
 width="2000.000000pt" height="1916.000000pt" viewBox="0 0 2000.000000 1916.000000"
 preserveAspectRatio="xMidYMid meet">

<g transform="translate(0.000000,1916.000000) scale(0.100000,-0.100000)"
fill="#000000" stroke="none">
<path d="M9316 19150 c-2532 -127 -4775 -1548 -5973 -3785 -395 -736 -671
-1607 -777 -2450 -65 -511 -72 -1105 -20 -1620 188 -1862 1095 -3567 2539
-4770 612 -511 1325 -925 2065 -1200 654 -243 1299 -382 2025 -436 206 -15
744 -15 950 0 1593 119 2998 696 4200 1727 175 150 535 506 688 681 957 1096
1554 2429 1726 3853 39 324 46 448 46 865 0 417 -7 541 -46 865 -265 2201
-1538 4145 -3464 5290 -192 114 -584 313 -795 403 -756 323 -1524 509 -2335
567 -211 15 -628 20 -829 10z m2671 -6198 c1162 -1152 2113 -2097 2113 -2100
0 -4 -255 -262 -567 -574 l-568 -568 -1660 1650 c-913 907 -1663 1649 -1668
1650 -4 0 -753 -723 -1665 -1607 -911 -883 -1678 -1626 -1703 -1650 l-46 -44
-544 565 c-299 311 -544 570 -544 576 0 7 1008 1010 2240 2231 l2240 2218 129
-127 c72 -70 1081 -1069 2243 -2220z"/>
<path d="M822 3610 c-395 -50 -666 -312 -723 -700 -18 -126 -7 -314 26 -425
63 -216 186 -370 365 -457 161 -79 322 -106 519 -88 111 10 254 40 294 62 21
11 20 25 -8 123 l-16 55 -27 -14 c-64 -32 -177 -51 -307 -51 -149 0 -207 12
-315 63 -156 73 -269 231 -306 427 -19 106 -15 284 11 380 56 213 212 376 415
430 134 37 335 28 465 -19 l62 -23 25 89 25 88 -62 19 c-129 40 -312 57 -443
41z"/>
<path d="M10254 3610 c-252 -35 -448 -177 -560 -405 -75 -155 -88 -219 -88
-445 0 -185 1 -200 27 -285 46 -146 99 -238 197 -336 123 -124 234 -176 416
-199 102 -13 221 0 332 35 204 65 360 217 440 429 49 131 65 221 65 381 1 143
-8 209 -45 325 -61 193 -189 350 -348 427 -135 66 -296 93 -436 73z m291 -210
c217 -103 345 -394 315 -712 -12 -124 -32 -197 -80 -293 -68 -138 -158 -221
-291 -265 -54 -18 -81 -21 -170 -18 -98 3 -111 6 -181 41 -139 68 -252 224
-295 404 -25 108 -25 329 1 433 40 165 144 323 255 388 90 52 136 63 261 59
106 -3 120 -6 185 -37z"/>
<path d="M11750 3610 c-133 -18 -237 -66 -317 -146 -159 -159 -160 -416 -3
-573 65 -65 146 -113 291 -172 135 -54 192 -85 246 -132 114 -100 111 -299 -8
-400 -115 -99 -371 -102 -559 -7 -33 16 -62 30 -64 30 -6 0 -58 -171 -54 -176
2 -2 29 -15 60 -28 227 -100 544 -91 721 21 145 91 227 278 198 449 -33 197
-142 298 -464 429 -163 66 -246 140 -266 236 -25 114 25 210 139 270 41 22 57
24 175 23 117 0 137 -3 200 -28 39 -15 77 -30 85 -32 12 -4 22 15 42 77 15 45
25 86 22 90 -10 16 -167 59 -252 69 -96 11 -111 11 -192 0z"/>
<path d="M18099 3610 c-211 -26 -375 -106 -510 -246 -153 -161 -222 -349 -222
-604 0 -154 18 -255 65 -367 97 -235 276 -381 540 -439 87 -20 311 -22 408 -5
76 14 209 51 215 61 2 3 -5 42 -16 86 l-20 80 -67 -22 c-269 -90 -566 -38
-731 127 -72 72 -134 189 -156 294 -20 95 -19 297 1 388 69 313 321 493 664
474 62 -4 134 -15 175 -27 39 -12 79 -24 90 -26 18 -5 23 5 43 77 26 93 27 90
-53 113 -128 36 -305 51 -426 36z"/>
<path d="M8510 3590 c-36 -5 -80 -12 -97 -15 l-33 -6 0 -804 0 -805 105 0 105
0 0 356 0 357 143 -5 c118 -4 151 -9 192 -27 110 -49 150 -116 206 -345 22
-89 51 -200 66 -248 l26 -88 109 0 c59 0 108 1 108 3 0 1 -9 25 -19 53 -11 28
-43 145 -71 260 -28 115 -65 239 -82 276 -34 74 -116 162 -162 174 -14 3 -26
9 -26 13 0 3 26 17 57 30 168 73 273 270 244 456 -28 180 -135 296 -326 350
-69 20 -432 30 -545 15z m480 -178 c76 -30 124 -72 157 -140 24 -49 28 -69 27
-137 0 -65 -5 -89 -26 -130 -34 -66 -79 -108 -153 -142 -57 -27 -68 -28 -233
-31 l-172 -4 2 299 3 298 35 7 c19 4 96 5 170 4 109 -3 146 -7 190 -24z"/>
<path d="M13200 3591 c-30 -4 -72 -11 -92 -15 l-38 -7 0 -804 c0 -637 3 -805
13 -805 6 0 80 -5 162 -11 257 -17 478 12 615 81 254 128 317 484 121 680 -48
48 -174 120 -211 120 -8 0 16 17 53 37 136 72 210 190 211 333 1 180 -98 304
-293 368 -70 23 -93 25 -281 28 -113 1 -230 -1 -260 -5z m442 -170 c64 -20
130 -72 156 -123 33 -64 34 -167 3 -232 -29 -58 -89 -110 -160 -137 -46 -18
-84 -23 -208 -27 l-153 -4 0 265 0 266 28 4 c49 9 296 0 334 -12z m-34 -696
c169 -40 264 -144 265 -290 2 -149 -70 -247 -218 -299 -53 -19 -300 -35 -349
-22 l-26 6 0 310 0 310 133 0 c81 0 156 -6 195 -15z"/>
<path d="M1590 2775 l0 -815 460 0 460 0 0 90 0 90 -355 0 -355 0 0 290 0 290
318 2 317 3 3 88 3 87 -321 0 -320 0 0 255 0 255 335 0 335 0 0 90 0 90 -440
0 -440 0 0 -815z"/>
<path d="M2780 2775 l0 -815 100 0 100 0 -1 523 c0 287 -4 594 -8 682 -4 88
-7 161 -6 163 2 2 34 -57 73 -130 86 -164 156 -280 492 -816 l265 -422 107 0
108 0 0 815 0 815 -101 0 -101 0 6 -607 c4 -335 9 -639 12 -678 l6 -70 -70
135 c-93 181 -130 243 -462 768 l-285 451 -117 1 -118 0 0 -815z"/>
<path d="M4190 3500 l0 -90 250 0 250 0 0 -725 0 -725 105 0 105 0 0 725 0
725 250 0 250 0 0 90 0 90 -605 0 -605 0 0 -90z"/>
<path d="M5825 3578 c-38 -108 -545 -1608 -545 -1612 0 -4 48 -5 107 -4 l106
3 85 253 84 252 291 -2 292 -3 85 -252 85 -253 113 0 c63 0 112 4 110 8 -1 5
-127 372 -278 815 l-275 807 -128 0 c-93 0 -129 -3 -132 -12z m283 -675 l90
-263 -244 0 c-134 0 -244 2 -244 4 0 2 36 111 80 242 45 132 97 295 116 364
19 69 37 132 40 140 3 8 21 -39 39 -105 18 -66 74 -238 123 -382z"/>
<path d="M6810 3083 c0 -554 6 -640 51 -776 83 -250 258 -370 539 -370 304 0
505 152 586 443 16 59 18 122 22 638 l3 572 -106 0 -105 0 0 -534 c0 -580 -4
-632 -55 -739 -36 -77 -96 -141 -163 -174 -52 -26 -66 -28 -172 -28 -102 0
-121 3 -165 25 -96 47 -165 144 -201 282 -15 54 -18 143 -21 616 l-5 552 -104
0 -104 0 0 -507z"/>
<path d="M14708 3278 c-59 -172 -183 -539 -277 -815 l-170 -503 107 0 107 0
85 255 85 255 291 0 292 0 48 -142 c26 -79 65 -194 86 -255 l40 -113 109 0
c60 0 109 3 109 7 0 3 -109 324 -241 712 -133 388 -257 752 -276 809 l-35 102
-127 0 -127 0 -106 -312z m266 -9 c19 -68 73 -236 120 -373 47 -137 86 -250
86 -252 0 -2 -110 -4 -244 -4 l-244 0 89 268 c81 244 106 324 139 451 6 23 13
41 16 39 2 -3 19 -61 38 -129z"/>
<path d="M15870 2775 l0 -815 96 0 96 0 -3 684 -4 683 67 -128 c82 -158 186
-330 505 -839 l249 -395 107 -3 107 -3 0 816 0 815 -102 0 -101 0 7 -572 c4
-315 10 -618 15 -673 4 -55 7 -102 5 -103 -1 -2 -34 59 -73 135 -89 176 -134
250 -470 781 l-275 432 -113 0 -113 0 0 -815z"/>
<path d="M18870 2775 l0 -815 105 0 105 0 0 313 0 314 71 81 c39 45 75 82 79
82 5 0 127 -178 272 -395 l263 -394 118 -1 c90 0 117 3 117 13 0 12 -92 149
-496 744 l-124 182 294 343 293 343 -120 3 c-67 1 -126 1 -132 -2 -14 -5 -465
-556 -564 -688 l-66 -89 -3 391 -2 390 -105 0 -105 0 0 -815z"/>
<path d="M12430 1104 c-83 -22 -137 -52 -188 -103 -86 -86 -128 -210 -119
-346 13 -186 107 -314 266 -362 69 -21 235 -22 301 -1 43 14 45 16 42 49 -1
18 -6 37 -10 41 -4 4 -36 0 -72 -9 -128 -30 -272 4 -336 80 -89 105 -108 291
-43 419 27 53 84 107 138 131 76 34 208 34 294 1 12 -4 19 5 28 35 7 23 9 44
6 47 -14 14 -126 34 -187 33 -36 0 -90 -7 -120 -15z"/>
<path d="M14687 1110 c-61 -16 -129 -55 -174 -102 -78 -81 -113 -180 -113
-318 0 -98 16 -167 56 -240 109 -200 407 -238 572 -72 200 199 137 620 -106
713 -64 24 -177 33 -235 19z m214 -115 c89 -62 132 -164 131 -304 -1 -198
-107 -331 -261 -331 -71 0 -125 25 -174 79 -67 74 -81 119 -81 256 -1 94 3
129 17 160 31 70 69 116 122 146 45 27 57 30 127 27 66 -3 82 -7 119 -33z"/>
<path d="M3620 695 l0 -415 230 0 230 0 0 45 0 45 -175 0 -175 0 0 370 0 370
-55 0 -55 0 0 -415z"/>
<path d="M4200 701 l0 -411 55 0 55 0 -2 408 -3 407 -52 3 -53 3 0 -410z"/>
<path d="M4533 1103 l-43 -4 0 -403 0 -404 23 -6 c42 -11 262 -6 330 9 183 38
292 159 315 345 30 247 -76 412 -296 459 -49 10 -232 12 -329 4z m338 -98
c133 -46 204 -187 180 -358 -22 -157 -107 -249 -256 -276 -64 -12 -154 -14
-179 -5 -14 5 -16 44 -16 329 l0 324 28 4 c50 9 196 -2 243 -18z"/>
<path d="M5305 1097 c-3 -6 -4 -192 -3 -412 l3 -400 233 -3 232 -2 0 45 0 45
-180 0 -180 0 0 150 0 150 160 0 160 0 0 45 0 45 -160 0 -160 0 0 130 0 130
170 0 170 0 0 45 0 45 -220 0 c-167 0 -222 -3 -225 -13z"/>
<path d="M5943 1103 l-33 -4 0 -405 0 -404 50 0 50 0 0 175 0 175 78 0 c131 0
155 -25 206 -225 l31 -120 58 -3 c38 -2 57 1 53 7 -4 6 -22 69 -41 141 -37
145 -56 185 -102 216 l-31 21 51 34 c93 62 124 176 76 276 -43 90 -129 124
-303 121 -61 0 -126 -3 -143 -5z m258 -84 c79 -27 120 -102 99 -181 -22 -81
-93 -118 -224 -118 l-66 0 0 149 c0 110 3 151 13 154 24 10 144 7 178 -4z"/>
<path d="M6820 695 l0 -415 233 2 232 3 3 42 3 43 -180 0 -181 0 0 150 0 150
160 0 160 0 0 45 0 45 -160 0 -160 0 0 130 0 130 170 0 170 0 0 45 0 45 -225
0 -225 0 0 -415z"/>
<path d="M7427 1103 c-11 -10 -8 -811 2 -818 6 -3 28 -2 51 1 l41 7 -3 338
c-2 187 -2 339 -2 339 1 0 29 -48 62 -107 33 -60 125 -211 205 -338 l144 -230
56 -3 57 -3 0 411 0 410 -51 0 -51 0 4 -334 3 -334 -50 92 c-28 51 -120 201
-204 334 l-154 242 -52 0 c-28 0 -55 -3 -58 -7z"/>
<path d="M8490 695 l0 -415 230 0 230 0 0 45 0 45 -177 2 -178 3 -3 148 -3
147 161 0 160 0 0 45 0 45 -160 0 -160 0 0 130 0 130 170 0 170 0 0 45 0 45
-220 0 -220 0 0 -415z"/>
<path d="M9090 695 l0 -415 228 2 227 3 3 42 3 43 -178 2 -178 3 -3 368 -2
367 -50 0 -50 0 0 -415z"/>
<path d="M9956 1058 c-3 -29 -15 -188 -26 -353 -11 -165 -22 -326 -25 -357
l-6 -58 50 0 50 0 5 53 c5 48 16 227 32 526 l7 125 36 -125 c20 -68 72 -227
115 -352 l79 -228 39 3 40 3 65 175 c35 96 90 252 123 347 l58 172 6 -97 c3
-53 10 -196 16 -317 15 -304 10 -285 70 -285 28 0 50 3 50 8 0 4 -11 180 -25
392 -14 212 -25 393 -25 403 0 14 -10 17 -68 17 l-67 0 -78 -212 c-43 -117
-93 -262 -113 -323 -19 -60 -37 -117 -40 -125 -3 -8 -21 35 -40 97 -18 61 -69
212 -112 335 l-78 223 -66 3 -66 3 -6 -53z"/>
<path d="M10910 695 l0 -415 230 0 230 0 0 45 0 45 -177 2 -178 3 -3 148 -3
147 161 0 160 0 0 45 0 45 -160 0 -160 0 0 130 0 130 170 0 170 0 0 45 0 45
-220 0 -220 0 0 -415z"/>
<path d="M11543 1103 l-33 -4 0 -405 0 -404 50 0 50 0 0 175 0 175 75 0 c133
0 160 -28 207 -217 l33 -128 57 -3 58 -3 -11 28 c-6 15 -22 74 -35 131 -33
139 -71 207 -124 224 -10 3 -1 12 25 25 77 40 115 105 115 195 -1 152 -103
220 -324 216 -61 0 -126 -3 -143 -5z m259 -83 c45 -13 95 -68 104 -115 10 -54
-19 -120 -67 -152 -33 -22 -54 -27 -134 -31 l-95 -5 0 151 c0 111 3 152 13
155 22 10 141 7 179 -3z"/>
<path d="M13071 1023 c-17 -49 -80 -233 -140 -411 l-110 -322 54 0 53 0 43
128 44 127 145 3 145 2 45 -130 44 -130 53 0 c29 0 53 3 53 8 0 4 -62 188
-137 410 l-137 402 -62 0 -62 0 -31 -87z m99 -39 c0 -9 25 -89 55 -178 30 -89
55 -165 55 -169 0 -4 -54 -7 -121 -7 -97 0 -120 3 -116 13 19 51 107 331 107
343 0 8 5 14 10 14 6 0 10 -7 10 -16z"/>
<path d="M13673 1103 l-43 -4 0 -404 0 -404 36 -7 c19 -3 97 -4 172 -2 151 6
232 28 314 84 126 88 184 315 127 500 -18 57 -31 77 -82 129 -89 89 -145 107
-337 110 -80 1 -164 1 -187 -2z m277 -83 c113 -21 194 -87 226 -182 24 -73 16
-236 -15 -300 -33 -68 -92 -123 -158 -148 -60 -22 -193 -37 -237 -26 l-26 6 0
325 0 324 28 4 c54 8 130 7 182 -3z"/>
</g>
</svg>
